<svg xmlns="http://www.w3.org/2000/svg" viewBox="0 0 64 64" id="compensation-and-benefits"><path d="M58.58 45.84c-1.07-2.25-3.86-3.33-6.4-2.44l-11.55 4.54s0 0 0 0c.12-.29.21-.58.27-.89.06-.32.1-.64.1-.97 0-2.75-2.24-4.98-5-4.98h-6.37c-.89 0-1.77-.24-2.54-.69l-4.18-2.45c-1.08-.63-2.3-.96-3.55-.96H4c-.55 0-1 .45-1 1v15c0 .53.41.97.94 1 .38.02.77.04 1.19.05 2.76.11 6.19.25 9.97 2.25l6.34 3.54c2.58 1.44 5.48 2.17 8.4 2.17 2.43 0 4.87-.51 7.14-1.53l19.22-8.65c1.21-.54 2.11-1.49 2.54-2.66.4-1.09.34-2.27-.16-3.32zm-1.72 2.63c-.24.66-.77 1.2-1.48 1.52l-19.22 8.65c-4.35 1.96-9.61 1.74-13.74-.56l-6.36-3.55c-4.19-2.22-8.03-2.38-10.84-2.49-.07 0-.14 0-.21 0v-13.05h14.37c.89 0 1.77.24 2.54.69l4.18 2.45c1.08.63 2.3.96 3.55.96h6.37c1.65 0 3 1.34 3 2.98s-1.32 2.94-2.94 2.97c0 0-.01 0-.02 0-.02 0-.03 0-.05 0h-11.2c-.55 0-1 .45-1 1s.45 1 1 1h11.2s.06 0 .08 0c0 0 0 0 0 0h.02c1.46-.02 2.88-.3 4.21-.83l12.56-4.94c1.52-.53 3.27.11 3.9 1.42.27.56.3 1.19.09 1.78zM56.64 41.52c-.17 0-.34-.04-.5-.14-.48-.28-.64-.89-.36-1.37 2.11-3.63 3.22-7.78 3.22-12.02 0-13.23-10.77-24-24-24S11 14.77 11 28c0 1.96.24 3.9.7 5.76.13.54-.19 1.08-.73 1.21-.53.13-1.08-.19-1.21-.73-.5-2.02-.76-4.12-.76-6.24 0-14.34 11.66-26 26-26s26 11.66 26 26c0 4.59-1.21 9.09-3.5 13.02-.19.32-.52.5-.87.5z"></path><path d="M29 22.5c0 1.38 1.12 2.5 2.5 2.5h2.5v-5h-2.5c-1.38 0-2.5 1.12-2.5 2.5zM36 32h2.5c1.38 0 2.5-1.12 2.5-2.5s-1.12-2.5-2.5-2.5h-2.5v5z"></path><path d="m35,9c-10.48,0-19,8.52-19,19,0,2.47.47,4.83,1.34,6.99h2.03c1.6,0,3.18.43,4.56,1.24l4.18,2.45c.46.27.99.41,1.52.41h6.37c3.46,0,6.34,2.52,6.9,5.81l2.4-.94c5.23-3.39,8.7-9.27,8.7-15.96,0-10.48-8.52-19-19-19Zm3.5,16c2.48,0,4.5,2.02,4.5,4.5s-2.02,4.5-4.5,4.5h-2.5v2c0,.55-.45,1-1,1s-1-.45-1-1v-2h-6c-.55,0-1-.45-1-1s.45-1,1-1h6v-5h-2.5c-2.48,0-4.5-2.02-4.5-4.5s2.02-4.5,4.5-4.5h2.5v-2c0-.55.45-1,1-1s1,.45,1,1v2h6c.55,0,1,.45,1,1s-.45,1-1,1h-6v5h2.5Z"></path></svg>