<svg xmlns="http://www.w3.org/2000/svg" viewBox="0 0 512 512" id="medal"><path d="M127.4 375.6c0 70.9 57.7 128.6 128.6 128.6s128.6-57.7 128.6-128.6c0-54.1-33.6-100.5-81.1-119.4.1-1.1.2-2.1.2-3.2 0-22.8-16.1-41.9-37.6-46.6v-14.2h25.5c.6 0 1.2-.1 1.9-.2.2 0 .4-.1.6-.2.4-.1.8-.2 1.2-.4.2-.1.4-.2.7-.3.3-.2.7-.3 1-.5.2-.1.4-.3.7-.4.1-.1.3-.2.4-.3l48.8-39.1.4-.4c.3-.2.5-.5.8-.7.2-.2.4-.5.6-.7.2-.3.4-.5.6-.8.2-.3.3-.6.5-.9.1-.3.3-.6.4-.9l.3-.9c.1-.3.1-.6.2-.9.1-.3.1-.7.1-1 0-.2.1-.3.1-.5V18c0-5.6-4.5-10.1-10.1-10.1H171.7c-5.6 0-10.1 4.5-10.1 10.1v124.9c0 .2 0 .3.1.5 0 .4.1.7.1 1 .1.3.1.6.2.9l.3.9c.1.3.2.6.4.9.1.3.3.6.5.9.2.3.4.6.6.8.2.3.4.5.6.7.2.3.5.5.8.7.1.1.2.3.4.4l48.7 39.1c.1.1.3.2.4.3.2.2.4.3.7.4.3.2.6.4 1 .5.2.1.4.2.7.3.4.1.8.3 1.2.4.2.1.4.1.6.2.6.1 1.2.2 1.9.2h25.5v14.2c-21.5 4.6-37.6 23.8-37.6 46.6 0 1.1.1 2.1.2 3.2-47.8 19.1-81.5 65.4-81.5 119.6zm104.5-203.7V28h48.2v143.9h-48.2zm98.3-33.9-30 24V28h30v110zM211.7 28v134.1l-30-24V28h30zM256 225.4c14.2 0 25.9 10.8 27.3 24.6-8.8-1.9-18-3-27.3-3-9.4 0-18.5 1-27.3 3 1.4-13.8 13.1-24.6 27.3-24.6zm0 41.8c59.8 0 108.4 48.6 108.4 108.4 0 59.8-48.6 108.4-108.4 108.4s-108.4-48.6-108.4-108.4c0-59.8 48.6-108.4 108.4-108.4z"></path><path d="M256 451.2c41.7 0 75.6-33.9 75.6-75.6 0-41.7-33.9-75.6-75.6-75.6s-75.6 33.9-75.6 75.6c0 41.7 33.9 75.6 75.6 75.6zm0-131.1c30.6 0 55.4 24.9 55.4 55.4 0 30.6-24.9 55.4-55.4 55.4s-55.4-24.9-55.4-55.4 24.8-55.4 55.4-55.4z"></path></svg>