<svg xmlns="http://www.w3.org/2000/svg" width="512" height="512" fill-rule="evenodd" clip-rule="evenodd" image-rendering="optimizeQuality" shape-rendering="geometricPrecision" text-rendering="geometricPrecision" viewBox="0 0 512 512" id="salary-day"><path fill="#666" fill-rule="nonzero" d="M408.12 412.85c0,-3.31 2.68,-6 6,-6 3.31,0 6,2.69 6,6l0 45.92c0,3.31 -2.69,6 -6,6l-408.12 0c-3.31,0 -6,-2.69 -6,-6l0 -275.61c0,-3.31 2.69,-6 6,-6l408.12 0c3.31,0 6,2.69 6,6l0 45.92c0,3.31 -2.69,6 -6,6 -3.32,0 -6,-2.69 -6,-6l0 -39.92 -396.12 0 0 263.61 396.12 0 0 -39.92z"></path><path fill="#666" fill-rule="nonzero" d="M59.68 90.54c3.31,0 6,2.69 6,6 0,3.31 -2.69,6 -6,6l-47.68 0 0 74.62 396.12 0 0 -74.62 -47.68 0c-3.31,0 -6,-2.69 -6,-6 0,-3.31 2.69,-6 6,-6l53.68 0c3.31,0 6,2.69 6,6l0 86.62c0,3.31 -2.69,6 -6,6l-408.12 0c-3.31,0 -6,-2.69 -6,-6l0 -86.62c0,-3.31 2.69,-6 6,-6l53.68 0zm261.15 0c3.32,0 6,2.69 6,6 0,3.31 -2.68,6 -6,6l-90.97 0c-3.31,0 -6,-2.69 -6,-6 0,-3.31 2.69,-6 6,-6l90.97 0zm-130.57 0c3.31,0 6,2.69 6,6 0,3.31 -2.69,6 -6,6l-90.98 0c-3.31,0 -6,-2.69 -6,-6 0,-3.31 2.69,-6 6,-6l90.98 0z"></path><path fill="#666" fill-rule="nonzero" d="M210.06 133.85l0 0c3.8 0 7.25-1.55 9.74-4.04l.02-.02c2.49-2.49 4.04-5.94 4.04-9.74l0-47.02c0-3.8-1.55-7.25-4.04-9.74l-.02-.02c-2.49-2.49-5.94-4.04-9.74-4.04l0 0c-3.81 0-7.26 1.55-9.74 4.04l-.03.02c-2.49 2.49-4.03 5.94-4.03 9.74l0 47.02c0 3.8 1.54 7.25 4.03 9.74l.03.02c2.48 2.49 5.93 4.04 9.74 4.04zm0 12l0 0c-7.07 0-13.51-2.9-18.19-7.56l-.02-.01-.01-.02-.01-.01c-4.67-4.68-7.57-11.13-7.57-18.2l0-47.02c0-7.07 2.89-13.51 7.56-18.19l.01-.01.01-.01.01-.02c4.69-4.67 11.13-7.57 18.21-7.57l0 0c7.07 0 13.51 2.9 18.19 7.56l.01.01.01.02.02.01c4.67 4.68 7.57 11.13 7.57 18.2l0 47.02c0 7.07-2.9 13.51-7.56 18.19l-.01.01-.02.01-.01.02c-4.68 4.67-11.13 7.57-18.2 7.57zM79.48 133.85l0 0c3.81 0 7.26-1.55 9.74-4.04l.03-.02c2.49-2.49 4.03-5.94 4.03-9.74l0-47.02c0-3.8-1.54-7.25-4.03-9.74l-.03-.02c-2.48-2.49-5.93-4.04-9.74-4.04l0 0c-3.8 0-7.25 1.55-9.74 4.04l-.02.02c-2.49 2.49-4.04 5.94-4.04 9.74l0 47.02c0 3.8 1.55 7.25 4.04 9.74l.02.02c2.49 2.49 5.94 4.04 9.74 4.04zm0 12l0 0c-7.07 0-13.51-2.9-18.19-7.56l-.01-.01-.01-.02-.02-.01c-4.67-4.68-7.57-11.13-7.57-18.2l0-47.02c0-7.07 2.9-13.51 7.56-18.19l.01-.01.02-.01.01-.02c4.68-4.67 11.13-7.57 18.2-7.57l0 0c7.07 0 13.51 2.9 18.19 7.56l.02.01.01.02.01.01c4.67 4.68 7.57 11.13 7.57 18.2l0 47.02c0 7.07-2.89 13.51-7.56 18.19l-.01.01-.01.01-.01.02c-4.69 4.67-11.13 7.57-18.21 7.57zM340.64 133.85l0 0c3.8 0 7.25-1.55 9.74-4.04l.02-.02c2.49-2.49 4.04-5.94 4.04-9.74l0-47.02c0-3.8-1.55-7.25-4.04-9.74l-.02-.02c-2.49-2.49-5.94-4.04-9.74-4.04l0 0c-3.81 0-7.26 1.55-9.75 4.04l-.02.02c-2.49 2.49-4.04 5.94-4.04 9.74l0 47.02c0 3.8 1.55 7.25 4.04 9.74l.02.02c2.49 2.49 5.94 4.04 9.75 4.04zm0 12l0 0c-7.07 0-13.51-2.9-18.2-7.56l-.01-.01-.01-.02-.01-.01c-4.67-4.68-7.58-11.13-7.58-18.2l0-47.02c0-7.07 2.9-13.51 7.57-18.19l.01-.01.01-.01.01-.02c4.69-4.67 11.13-7.57 18.21-7.57l0 0c7.07 0 13.51 2.9 18.19 7.56l.01.01.01.02.01.01c4.68 4.68 7.58 11.13 7.58 18.2l0 47.02c0 7.07-2.9 13.51-7.56 18.19l-.02.01-.01.01-.01.02c-4.68 4.67-11.13 7.57-18.2 7.57zM286.53 212.07l-19.77 0 0 19.78 19.77 0 0-19.78zm-25.77-12l31.77 0c3.32 0 6 2.69 6 6l0 31.78c0 3.31-2.68 6-6 6l-31.77 0c-3.31 0-6-2.69-6-6l0-31.78c0-3.31 2.69-6 6-6zM211.51 212.07l-19.77 0 0 19.78 19.77 0 0-19.78zm-25.77-12l31.77 0c3.32 0 6 2.69 6 6l0 31.78c0 3.31-2.68 6-6 6l-31.77 0c-3.31 0-6-2.69-6-6l0-31.78c0-3.31 2.69-6 6-6zM136.49 212.07l-19.77 0 0 19.78 19.77 0 0-19.78zm-25.77-12l31.77 0c3.31 0 6 2.69 6 6l0 31.78c0 3.31-2.69 6-6 6l-31.77 0c-3.32 0-6-2.69-6-6l0-31.78c0-3.31 2.68-6 6-6zM61.47 212.07l-19.77 0 0 19.78 19.77 0 0-19.78zm-25.77-12l31.77 0c3.31 0 6 2.69 6 6l0 31.78c0 3.31-2.69 6-6 6l-31.77 0c-3.32 0-6-2.69-6-6l0-31.78c0-3.31 2.68-6 6-6zM286.53 278.08l-19.77 0 0 19.77 19.77 0 0-19.77zm-25.77-12l31.77 0c3.32 0 6 2.68 6 6l0 31.77c0 3.31-2.68 6-6 6l-31.77 0c-3.31 0-6-2.69-6-6l0-31.77c0-3.32 2.69-6 6-6zM211.51 278.08l-19.77 0 0 19.77 19.77 0 0-19.77zm-25.77-12l31.77 0c3.32 0 6 2.68 6 6l0 31.77c0 3.31-2.68 6-6 6l-31.77 0c-3.31 0-6-2.69-6-6l0-31.77c0-3.32 2.69-6 6-6zM136.49 278.08l-19.77 0 0 19.77 19.77 0 0-19.77zm-25.77-12l31.77 0c3.31 0 6 2.68 6 6l0 31.77c0 3.31-2.69 6-6 6l-31.77 0c-3.32 0-6-2.69-6-6l0-31.77c0-3.32 2.68-6 6-6zM61.47 278.08l-19.77 0 0 19.77 19.77 0 0-19.77zm-25.77-12l31.77 0c3.31 0 6 2.68 6 6l0 31.77c0 3.31-2.69 6-6 6l-31.77 0c-3.32 0-6-2.69-6-6l0-31.77c0-3.32 2.68-6 6-6zM286.53 344.08l-19.77 0 0 19.77 19.77 0 0-19.77zm-25.77-12l31.77 0c3.32 0 6 2.69 6 6l0 31.77c0 3.32-2.68 6-6 6l-31.77 0c-3.31 0-6-2.68-6-6l0-31.77c0-3.31 2.69-6 6-6zM211.51 344.08l-19.77 0 0 19.77 19.77 0 0-19.77zm-25.77-12l31.77 0c3.32 0 6 2.69 6 6l0 31.77c0 3.32-2.68 6-6 6l-31.77 0c-3.31 0-6-2.68-6-6l0-31.77c0-3.31 2.69-6 6-6zM136.49 344.08l-19.77 0 0 19.77 19.77 0 0-19.77zm-25.77-12l31.77 0c3.31 0 6 2.69 6 6l0 31.77c0 3.32-2.69 6-6 6l-31.77 0c-3.32 0-6-2.68-6-6l0-31.77c0-3.31 2.68-6 6-6zM61.47 344.08l-19.77 0 0 19.77 19.77 0 0-19.77zm-25.77-12l31.77 0c3.31 0 6 2.69 6 6l0 31.77c0 3.32-2.69 6-6 6l-31.77 0c-3.32 0-6-2.68-6-6l0-31.77c0-3.31 2.68-6 6-6zM286.53 410.08l-19.77 0 0 19.78 19.77 0 0-19.78zm-25.77-12l31.77 0c3.32 0 6 2.69 6 6l0 31.78c0 3.31-2.68 6-6 6l-31.77 0c-3.31 0-6-2.69-6-6l0-31.78c0-3.31 2.69-6 6-6zM211.51 410.08l-19.77 0 0 19.78 19.77 0 0-19.78zm-25.77-12l31.77 0c3.32 0 6 2.69 6 6l0 31.78c0 3.31-2.68 6-6 6l-31.77 0c-3.31 0-6-2.69-6-6l0-31.78c0-3.31 2.69-6 6-6zM136.49 410.08l-19.77 0 0 19.78 19.77 0 0-19.78zm-25.77-12l31.77 0c3.31 0 6 2.69 6 6l0 31.78c0 3.31-2.69 6-6 6l-31.77 0c-3.32 0-6-2.69-6-6l0-31.78c0-3.31 2.68-6 6-6zM61.47 410.08l-19.77 0 0 19.78 19.77 0 0-19.78zm-25.77-12l31.77 0c3.31 0 6 2.69 6 6l0 31.78c0 3.31-2.69 6-6 6l-31.77 0c-3.32 0-6-2.69-6-6l0-31.78c0-3.31 2.68-6 6-6z"></path><path fill="#666" fill-rule="nonzero" d="M63.23 201.83c2.34-2.34 6.14-2.34 8.48 0 2.35 2.34 2.35 6.15 0 8.49l-31.77 31.77c-2.34 2.34-6.15 2.34-8.49 0-2.34-2.34-2.34-6.14 0-8.48l31.78-31.78zM138.25 201.83c2.34-2.34 6.14-2.34 8.48 0 2.35 2.34 2.35 6.15 0 8.49l-31.77 31.77c-2.34 2.34-6.14 2.34-8.49 0-2.34-2.34-2.34-6.14 0-8.48l31.78-31.78zM288.29 399.84c2.34-2.34 6.14-2.34 8.49 0 2.34 2.34 2.34 6.14 0 8.48l-31.78 31.78c-2.34 2.34-6.14 2.34-8.48 0-2.35-2.34-2.35-6.14 0-8.49l31.77-31.77zM213.27 399.84c2.34-2.34 6.14-2.34 8.49 0 2.34 2.34 2.34 6.14 0 8.48l-31.78 31.78c-2.34 2.34-6.14 2.34-8.49 0-2.34-2.34-2.34-6.14 0-8.49l31.78-31.77z"></path><path fill="#ffb300" fill-rule="nonzero" d="M382.73 295.58c0,-8.66 3.52,-16.51 9.2,-22.19 4.31,-4.31 9.88,-7.38 16.11,-8.6l0 -10.57c0,-3.32 2.68,-6 6,-6 3.31,0 6,2.68 6,6l0 10.54c6.29,1.2 11.92,4.28 16.27,8.63 5.68,5.68 9.19,13.53 9.19,22.19 0,3.32 -2.69,6 -6,6 -3.32,0 -6,-2.68 -6,-6 0,-5.35 -2.17,-10.2 -5.68,-13.7 -3.51,-3.51 -8.35,-5.68 -13.7,-5.68 -5.36,0 -10.2,2.17 -13.71,5.68 -3.51,3.5 -5.68,8.35 -5.68,13.7 0,5.36 2.17,10.2 5.68,13.71 3.51,3.5 8.35,5.67 13.71,5.67 8.66,0 16.51,3.52 22.19,9.2 5.68,5.68 9.19,13.52 9.19,22.19 0,8.66 -3.51,16.51 -9.19,22.19 -4.36,4.35 -9.98,7.43 -16.27,8.63l0 10.54c0,3.32 -2.69,6 -6,6 -3.32,0 -6,-2.68 -6,-6l0 -10.57c-6.23,-1.22 -11.8,-4.29 -16.11,-8.6 -5.68,-5.68 -9.2,-13.53 -9.2,-22.19 0,-3.32 2.69,-6 6,-6 3.32,0 6,2.68 6,6 0,5.35 2.17,10.2 5.68,13.7 3.51,3.51 8.35,5.68 13.71,5.68 5.35,0 10.19,-2.17 13.7,-5.68 3.51,-3.5 5.68,-8.35 5.68,-13.7 0,-5.36 -2.17,-10.2 -5.68,-13.71 -3.51,-3.5 -8.35,-5.68 -13.7,-5.68 -8.67,0 -16.52,-3.51 -22.19,-9.19 -5.68,-5.68 -9.2,-13.52 -9.2,-22.19zm100.6 94.6c17.72,-17.71 28.67,-42.19 28.67,-69.22 0,-27.02 -10.95,-51.5 -28.67,-69.21 -16.39,-16.39 -38.57,-27 -63.21,-28.49 -1.99,-0.12 -3.99,-0.18 -6,-0.18 -2.02,0 -4.02,0.06 -6,0.18 -24.64,1.49 -46.83,12.1 -63.22,28.49 -17.71,17.71 -28.67,42.18 -28.67,69.21 0,27.03 10.96,51.51 28.67,69.22 16.39,16.39 38.58,27 63.22,28.49 1.98,0.12 3.98,0.18 6,0.18 2.01,0 4.01,-0.06 6,-0.18 24.64,-1.49 46.82,-12.1 63.21,-28.49z"></path></svg>