<svg xmlns="http://www.w3.org/2000/svg" enable-background="new 0 0 512 512" viewBox="0 0 512 512" id="travel-day"><g><g><g><path d="M473.81,512H141.66c-4.28,0-7.76-3.47-7.76-7.76c0-4.28,3.47-7.76,7.76-7.76h332.15c12.19,0,21.7-8.71,22.6-20.72
				c0.1-1.21,0.1-2.4,0.02-3.58l-22.99-332.17c-0.88-12.66-11.08-23.47-23.73-25.15v0c-0.07-0.01-0.14-0.02-0.21-0.03
				c-0.27-0.03-0.53-0.06-0.81-0.09c-0.11-0.01-0.22-0.02-0.33-0.03c-0.04-0.01-0.09-0.01-0.13-0.01c-0.13-0.01-0.27-0.01-0.4-0.03
				l-0.11-0.01c-0.12,0-0.25-0.01-0.37-0.01c-0.04,0-0.08,0-0.11,0c-0.31-0.01-0.62-0.03-0.93-0.03H272.24
				c-4.28,0-7.76-3.47-7.76-7.76c0-4.28,3.47-7.76,7.76-7.76h174.07c0.5,0,1,0.02,1.49,0.04c0.09,0,0.18,0,0.28,0.01
				c0.08,0,0.16,0,0.23,0.01c0.24,0.01,0.49,0.03,0.74,0.04c0.29,0.02,0.58,0.04,0.87,0.07c0.07,0.01,0.14,0.01,0.2,0.02
				c0.53,0.05,1.03,0.11,1.54,0.18c0.11,0.01,0.22,0.03,0.33,0.05c19.7,2.74,35.55,19.64,36.92,39.42l22.99,332.15
				c0.14,1.95,0.13,3.94-0.03,5.89C510.38,496.92,494.01,512,473.81,512z M447.26,114.64C447.26,114.64,447.26,114.64,447.26,114.64
				C447.26,114.64,447.26,114.64,447.26,114.64z M447.25,114.64C447.25,114.64,447.26,114.64,447.25,114.64
				C447.26,114.64,447.25,114.64,447.25,114.64z M447.24,114.64C447.24,114.64,447.25,114.64,447.24,114.64
				C447.25,114.64,447.24,114.64,447.24,114.64z M447.23,114.64c0,0,0.01,0,0.01,0C447.24,114.64,447.23,114.64,447.23,114.64z
				 M448.51,99.17c0.01,0,0.03,0,0.04,0C448.54,99.18,448.52,99.18,448.51,99.17z"></path></g><g><path d="M379.39,511.99H47.24c-10.94,0-20.62-4.31-27.24-12.13c-6.72-7.95-9.4-18.43-7.54-29.51l37.8-224.44
				c0.71-4.22,4.72-7.08,8.94-6.36c4.22,0.71,7.07,4.71,6.36,8.94l-37.8,224.44c-1.09,6.5,0.36,12.51,4.08,16.92
				c3.62,4.28,9.09,6.64,15.39,6.64h332.15c14.12,0,28.06-11.97,30.45-26.13l39.18-232.63l16.76-99.53
				c1.96-11.63-4.28-21.16-15.18-23.18c-0.29-0.05-0.6-0.1-0.91-0.14v0c-0.07-0.01-0.13-0.02-0.2-0.03
				c-0.26-0.03-0.52-0.06-0.79-0.09c-0.11-0.01-0.23-0.02-0.33-0.03c-0.04-0.01-0.09-0.01-0.13-0.01c-0.1,0-0.21-0.01-0.31-0.02
				c-0.11-0.01-0.21-0.01-0.32-0.02c-0.07,0-0.14-0.01-0.21-0.01c-0.05,0-0.11,0-0.16-0.01c-0.31-0.01-0.62-0.02-0.93-0.02H272.24
				c-4.28,0-7.76-3.47-7.76-7.76c0-4.28,3.47-7.76,7.76-7.76h174.07c0.49,0,0.99,0.01,1.48,0.03c0.14,0,0.29,0.01,0.46,0.02
				c0.26,0.01,0.52,0.02,0.77,0.04c0.3,0.01,0.6,0.04,0.9,0.07c0.07,0.01,0.14,0.01,0.2,0.02c0.53,0.06,1.05,0.11,1.56,0.18
				c0.11,0.01,0.22,0.03,0.33,0.05c0.46,0.07,0.92,0.14,1.38,0.22c19.14,3.54,31.03,21.17,27.68,41.02l-16.76,99.53l-39.18,232.63
				C421.45,494.83,401.35,511.99,379.39,511.99z M446.83,114.6c0.11,0.01,0.22,0.03,0.32,0.03
				C447.04,114.63,446.93,114.62,446.83,114.6z"></path></g><g><g><g><path d="M124.47,363.81c-10.62,0-20-4.18-26.43-11.78c-6.52-7.71-9.12-17.88-7.31-28.64c3.57-21.22,23.03-37.84,44.3-37.84
						c10.62,0,20,4.18,26.43,11.78c6.52,7.71,9.12,17.88,7.31,28.64C165.2,347.19,145.74,363.81,124.47,363.81z M135.04,301.07
						c-13.45,0-26.73,11.4-29,24.9c-1.04,6.17,0.33,11.87,3.86,16.04c3.43,4.05,8.61,6.29,14.58,6.29c13.45,0,26.73-11.4,29-24.9
						c1.04-6.17-0.33-11.87-3.86-16.04C146.19,303.3,141.02,301.07,135.04,301.07z"></path></g><g><path d="M237.26,363.81c-10.62,0-20-4.18-26.43-11.78c-6.52-7.71-9.12-17.88-7.31-28.64c3.57-21.22,23.04-37.84,44.3-37.84
						c10.62,0,20,4.18,26.43,11.78c6.52,7.71,9.12,17.88,7.31,28.64C277.99,347.19,258.53,363.81,237.26,363.81z M247.82,301.07
						c-13.45,0-26.73,11.4-29.01,24.9c-1.04,6.17,0.33,11.87,3.86,16.04c3.43,4.05,8.61,6.28,14.58,6.28
						c13.45,0,26.73-11.4,29.01-24.9c1.04-6.17-0.33-11.87-3.86-16.04C258.98,303.3,253.8,301.07,247.82,301.07z"></path></g><g><path d="M350.04,363.81c-10.62,0-20-4.18-26.43-11.78c-6.52-7.71-9.12-17.88-7.31-28.64c3.57-21.22,23.03-37.84,44.3-37.84
						c10.62,0,20,4.18,26.43,11.78c6.52,7.71,9.12,17.88,7.31,28.64C390.77,347.19,371.31,363.81,350.04,363.81z M360.6,301.07
						c-13.45,0-26.73,11.4-29,24.9c-1.04,6.17,0.33,11.87,3.86,16.04c3.43,4.05,8.61,6.29,14.58,6.29c13.45,0,26.73-11.4,29.01-24.9
						c1.04-6.17-0.33-11.87-3.86-16.04C371.76,303.3,366.58,301.07,360.6,301.07z"></path></g></g><g><g><path d="M106.13,472.75c-10.62,0-20-4.18-26.43-11.78c-6.52-7.71-9.12-17.88-7.31-28.64c3.57-21.22,23.04-37.84,44.3-37.84
						c10.62,0,20,4.18,26.43,11.78c6.52,7.71,9.12,17.88,7.31,28.64C146.86,456.13,127.4,472.75,106.13,472.75z M116.69,410.01
						c-13.45,0-26.73,11.4-29.01,24.9c-1.04,6.17,0.33,11.87,3.86,16.04c3.43,4.05,8.61,6.28,14.58,6.28c13.45,0,26.73-11.4,29-24.9
						c1.04-6.17-0.33-11.87-3.86-16.04C127.85,412.24,122.67,410.01,116.69,410.01z"></path></g><g><path d="M218.91,472.75c-10.62,0-20-4.18-26.43-11.78c-6.52-7.71-9.12-17.88-7.31-28.64c3.57-21.22,23.04-37.84,44.3-37.84
						c10.62,0,20,4.18,26.43,11.78c6.52,7.71,9.12,17.88,7.31,28.64C259.64,456.13,240.18,472.75,218.91,472.75z M229.48,410.01
						c-13.45,0-26.73,11.4-29.01,24.9c-1.04,6.17,0.33,11.87,3.86,16.04c3.43,4.05,8.61,6.28,14.58,6.28
						c13.45,0,26.73-11.4,29.01-24.9c1.04-6.17-0.33-11.87-3.86-16.04C240.63,412.24,235.45,410.01,229.48,410.01z"></path></g><g><path d="M331.69,472.75c-10.62,0-20-4.18-26.43-11.78c-6.52-7.71-9.12-17.88-7.31-28.64c3.57-21.22,23.03-37.84,44.3-37.84
						c10.62,0,20,4.18,26.43,11.78c6.52,7.71,9.12,17.88,7.31,28.64C372.42,456.13,352.96,472.75,331.69,472.75z M342.26,410.01
						c-13.45,0-26.73,11.4-29,24.9c-1.04,6.17,0.33,11.87,3.86,16.04c3.43,4.05,8.61,6.29,14.58,6.29c13.45,0,26.73-11.4,29.01-24.9
						c1.04-6.17-0.33-11.87-3.86-16.04C353.41,412.24,348.23,410.01,342.26,410.01z"></path></g></g></g><g><path d="M456.67,246.76H262.74c-4.28,0-7.76-3.47-7.76-7.76s3.47-7.76,7.76-7.76h193.93c4.28,0,7.76,3.47,7.76,7.76
				S460.95,246.76,456.67,246.76z"></path></g><g><path d="M397.24,512c-1.97,0-3.94-0.75-5.45-2.24c-3.05-3.01-3.08-7.92-0.06-10.97l53.62-54.25c10.26-10.37,27.13-10.4,37.6-0.07
				l26.65,26.37c3.05,3.01,3.07,7.92,0.06,10.97c-3.01,3.05-7.92,3.07-10.97,0.06l-26.65-26.36c-4.38-4.32-11.42-4.35-15.67-0.06
				l-53.62,54.24C401.24,511.23,399.24,512,397.24,512z"></path></g></g><g><g><path d="M142.37,284.73C63.87,284.73,0,220.87,0,142.37S63.87,0,142.37,0s142.37,63.86,142.37,142.37
				c0,25.95-7.02,51.23-20.32,73.33l14.65,53.61c0.73,2.67-0.02,5.53-1.97,7.5c-1.95,1.97-4.8,2.75-7.48,2.05l-54.26-14.25
				C193.33,277.79,168.17,284.73,142.37,284.73z M142.37,15.52c-69.95,0-126.85,56.9-126.85,126.85
				c0,69.95,56.9,126.85,126.85,126.85c24.01,0,47.39-6.75,67.61-19.51c1.82-1.15,4.03-1.49,6.11-0.94l44.47,11.68l-12-43.91
				c-0.58-2.11-0.24-4.36,0.94-6.21c12.91-20.3,19.73-43.8,19.73-67.96C269.22,72.42,212.31,15.52,142.37,15.52z"></path></g><g><g><path d="M110.56,191.79c-3.11,0-6.04-1.88-7.24-4.96c-1.55-4,0.44-8.49,4.43-10.04c10.49-4.06,27.43-16.15,45.3-32.34
					c3.18-2.88,8.08-2.63,10.96,0.54c2.88,3.18,2.63,8.08-0.54,10.96c-19.49,17.65-37.76,30.52-50.11,35.31
					C112.44,191.62,111.49,191.79,110.56,191.79z"></path></g><g><path d="M99.53,180.76c-0.93,0-1.87-0.17-2.79-0.52c-4-1.54-5.99-6.03-4.44-10.03c4.57-11.84,16.74-29.33,33.39-47.98
					c2.85-3.2,7.76-3.47,10.95-0.62c3.2,2.85,3.48,7.76,0.62,10.95c-15.23,17.06-26.62,33.23-30.49,43.24
					C105.58,178.87,102.64,180.76,99.53,180.76z"></path></g><g><path d="M183.38,133.07c-1.88,0-3.77-0.68-5.26-2.06c-3.15-2.91-3.34-7.82-0.43-10.96c23.33-25.24,33.12-42.43,35.48-49.67
					c-7.59,2.44-25.9,12.99-52.82,38.44c-3.11,2.94-8.02,2.81-10.97-0.31c-2.94-3.11-2.81-8.02,0.31-10.97
					c15.19-14.36,30.4-26.47,42.82-34.09c10.29-6.31,24.91-13.75,33.13-5.53c8,8,1.12,21.99-4.75,31.82
					c-7.01,11.72-18.3,26.23-31.81,40.84C187.55,132.23,185.47,133.07,183.38,133.07z"></path></g><g><path d="M181.15,230.42c-0.98,0-1.96-0.12-2.93-0.38c-3.96-1.04-7.09-4.14-8.18-8.09l-19.26-69.69
					c-1.14-4.13,1.28-8.4,5.41-9.54c4.13-1.14,8.4,1.28,9.54,5.41l17.44,63.12l0.05-0.05L175.65,126c-0.38-4.27,2.77-8.03,7.04-8.41
					c4.27-0.37,8.03,2.77,8.41,7.04l7.74,87.05c0.3,3.41-0.91,6.76-3.34,9.18l-6.18,6.18C187.14,229.23,184.17,230.42,181.15,230.42
					z"></path></g><g><path d="M131.47,135.15c-0.68,0-1.38-0.09-2.07-0.28l-64.19-17.74c-3.95-1.09-7.04-4.23-8.09-8.18c-1.04-3.96,0.11-8.21,3-11.11
					l6.18-6.18c2.42-2.42,5.78-3.64,9.19-3.34l80.21,7.13c4.27,0.38,7.42,4.15,7.04,8.41c-0.38,4.27-4.15,7.42-8.41,7.04
					l-78.36-6.97l-0.05,0.05l57.62,15.92c4.13,1.14,6.55,5.41,5.41,9.54C138,132.9,134.87,135.15,131.47,135.15z"></path></g><g><path d="M106.77,228.07c-4.44,0-8.54-2.6-10.44-6.62l-5.13-10.87l-5.37,2.22c-4.33,1.79-9.26,0.81-12.57-2.5
					c-3.31-3.31-4.3-8.25-2.51-12.57l2.06-4.98l-10.71-5.05c-4.02-1.9-6.62-6-6.62-10.44v-0.48c0-3.08,1.2-5.98,3.38-8.16
					c2.18-2.18,5.08-3.38,8.16-3.38c0,0,0,0,0,0l32.51,0.01c4.28,0,7.76,3.47,7.76,7.76c0,4.28-3.47,7.76-7.76,7.76c0,0,0,0,0,0
					l-15.88,0c4.89,2.79,7.07,8.74,5.08,14.06l0.03-0.01c5.18-2.14,11.03-0.26,14.04,4.29v-15.06c0-4.28,3.47-7.76,7.76-7.76
					c4.28,0,7.76,3.47,7.76,7.76v32.5C118.31,222.89,113.13,228.07,106.77,228.07z"></path></g></g></g></g></svg>